# xmcd
#
# Track frame offsets:
# 150
# 23110
# 40870
# 58240
# 81872
# 96455
# 125830
# 156575
# 177600
# 190090
# 204895
# 239185
# 251290
# 264920
# 282110
#
# Disc length: 4081 seconds
#
#
# Revision: 1
# Processed by: cddbd v1.5.1PL2 Copyright (c) Steve Scherf et al.
# Submitted via: freedbtool 1.11
#
DISCID=dc0fef0f
DTITLE=Clash - Combat Rock outtakes
DYEAR=1900
DGENRE=Punk
TTITLE0=Know Your Rights
TTITLE1=Car Jamming
TTITLE2=Rock the Casbah
TTITLE3=Red Angel Dragnet
TTITLE4=Should I Stay Or Should I Go?
TTITLE5=Ghetto Defendant
TTITLE6=Straight To Hell
TTITLE7=Inoculated City
TTITLE8=Atom Tan
TTITLE9=Cool Confusion
TTITLE10=Sean Flynn
TTITLE11=Death Is A Star
TTITLE12=First Night Back In London
TTITLE13=unreleased song #1
TTITLE14=unreleased song #2
EXTD=
EXTT0=
EXTT1=
EXTT2=
EXTT3=
EXTT4=
EXTT5=
EXTT6=
EXTT7=
EXTT8=
EXTT9=
EXTT10=
EXTT11=
EXTT12=
EXTT13=
EXTT14=
PLAYORDER=
